<svg xmlns="http://www.w3.org/2000/svg" viewBox="0 0 1000 1000"  xmlns:v="https://vecta.io/nano"><path d="M174.99 11.17C96.17 17.65 27.28 81.14 12.59 160.39c-3.46 19-3.46 662.11 0 681.11 6.69 35.85 22.89 66.51 49.67 94.15 23.32 24.19 53.12 42.11 84.44 50.53 13.17 3.67 34.98 3.89 354.16 3.89l354.16-3.89c31.31-8.42 61.11-26.35 84.44-50.53 16.85-17.49 25.48-29.58 35.42-50.96 16.2-34.34 15.12-4.1 15.12-383.74l-3.89-354.16c-13.82-50.32-49.89-94.37-97.61-118.34-16.2-7.99-37.36-14.69-53.77-16.63-16.21-2.16-635.77-2.59-659.74-.65zm661.67 63.27c44.27 11.23 79.47 46.43 90.7 90.7 2.81 11.23 3.24 53.77 3.24 335.8 0 355.45.86 333.43-13.39 362.8-9.29 19-34.55 44.27-53.56 53.56-29.37 14.25-7.34 13.39-362.8 13.39-355.45 0-333.43.86-362.8-13.39-19-9.29-44.27-34.55-53.56-53.56-14.25-29.37-13.39-7.34-13.39-362.8l3.24-335.8c11.23-43.62 46.21-79.04 89.62-90.48 18.37-4.97 653.91-4.97 672.7-.22zm-585.23 59.6c-31.75 4.75-54.42 16.41-77.74 39.73-24.19 24.19-35.2 46.21-39.95 80.77-7.56 53.99 22.46 111.43 71.7 137.34 47.08 24.83 103.44 20.73 146.2-10.58l9.93-7.34 37.79 34.55 50.53 46.43c9.72 9.07 13.17 13.82 14.68 20.73 2.37 10.37 10.58 22.24 16.84 24.19 4.1 1.3 4.32 3.24 4.32 49.45v48.16l-13.39 2.81c-18.14 3.45-45.35 16.41-60.47 28.94-38.01 31.1-56.36 84.65-46 134.11 12.96 61.98 71.05 109.06 134.97 109.06 50.97 0 100.63-30.45 122.88-75.58 14.9-30.45 18.57-58.09 11.88-90.05-11.01-53.34-50.32-93.29-104.09-105.82l-15.55-3.67v-93.3l6.48-4.75c8.42-6.26 13.17-13.82 15.98-25.05 2.16-7.99 7.99-14.25 51.83-54.64l49.45-45.56 10.15 7.34c24.83 17.92 51.61 26.78 81.2 26.78 76.23 0 137.35-60.68 137.56-137.13 0-37.79-12.96-69.32-39.52-96.31-17.71-17.92-29.8-25.91-51.4-33.69-65-23.54-138.86 5.83-169.09 67.38-12.31 25.27-15.55 40.81-14.47 68.02 1.29 25.48 6.26 43.19 17.92 63.06l7.13 12.09-93.5 86.16-8.64-3.89c-11.23-5.18-22.03-5.18-32.18.22l-8.21 4.1-94.56-86.81 4.54-6.69c25.48-38.44 28.29-93.72 6.69-136.7-26.14-51.4-85.52-82.49-141.89-73.86zm57.01 36.28c59.82 22.67 86.38 92 57.44 149.44l-5.61 10.8-12.31-10.58c-23.11-20.3-22.67-19.22-18.57-34.98 2.81-11.23 3.02-15.98 1.08-25.48-6.26-31.31-34.12-52.26-65.22-49.45-21.59 1.94-39.09 13.61-48.81 32.61-19 37.36 3.46 81.2 45.13 88.11 13.6 2.37 19.22 1.08 40.6-7.56 2.16-.86 9.07 4.1 20.3 14.25l17.06 15.77-11.01 7.13c-15.98 10.15-31.75 15.55-49.45 16.84-63.27 4.95-115.31-43.42-115.31-106.69 0-21.38 2.59-31.74 12.52-50.75 15.12-29.15 48.59-52.26 79.9-55.28 18.36-1.95 37.58.21 52.26 5.82zm443.57-5.18c5.62.86 17.71 5.18 26.99 9.72 22.03 11.01 38.66 28.29 49.67 51.18 7.13 15.33 7.99 18.79 8.64 38.87.86 17.92 0 24.83-3.67 36.93-13.6 44.7-55.28 75.8-101.71 76.02-22.46 0-48.59-8.42-64.35-21.16l-4.97-3.89 17.28-15.55 17.28-15.77 9.29 4.75c13.39 6.91 35.63 6.91 50.1-.22 23.32-11.23 37.14-34.77 35.2-59.39-2.38-30.88-24.83-53.99-55.28-56.58-31.31-2.81-58.74 17.71-65.22 48.59-2.16 10.37-1.94 14.47 1.08 26.13 4.1 15.98 4.97 14.04-16.2 32.82l-14.69 12.96-5.18-10.37c-12.31-24.19-15.55-52.04-9.07-77.31 11.01-41.89 47.51-73.42 91.78-78.82 6.48-.86 14.25-1.08 17.28-.86 3.01.44 9.92 1.3 15.75 1.95zM485.74 651.89v23.32l-9.5 3.67c-36.06 13.82-47.73 65.43-21.6 95.88 23.32 27.43 69.97 27.21 92.64-.43 14.9-18.14 18.57-44.48 8.85-65-5.83-12.74-21.16-27.64-32.17-31.1l-7.99-2.81v-47.5l7.13 1.51c52.26 11.44 89.19 60.25 84.87 112.73-5.18 65-65.86 110.78-129.14 97.61-26.78-5.62-53.56-23.97-68.02-46.86-37.79-58.96-10.8-137.13 55.07-159.59 7.99-2.59 15.77-4.97 17.28-4.97 1.93.01 2.58 6.05 2.58 23.54z"/></svg>